<svg xmlns="http://www.w3.org/2000/svg" version="1.1" xmlns:xlink="http://www.w3.org/1999/xlink" xmlns:svgjs="http://svgjs.dev/svgjs" width="1440" height="560" preserveAspectRatio="none" viewBox="0 0 1440 560"><g mask="url(&quot;#SvgjsMask1015&quot;)" fill="none"><path d="M559.674,261.176C579.443,260.974,595.297,245.939,604.164,228.269C612.125,212.405,609.799,194.138,601.073,178.681C592.173,162.917,577.777,149.413,559.674,149.463C541.639,149.513,527.697,163.296,518.671,178.91C509.634,194.543,505.527,213.033,513.582,229.194C522.523,247.132,539.632,261.381,559.674,261.176" fill="rgba(28, 121, 142, 0.4)" class="triangle-float1"></path><path d="M6.618,28.571C27.637,29.209,48.913,19.613,58.594,0.945C67.71,-16.634,59.175,-36.541,49.281,-53.694C39.377,-70.865,26.439,-89.383,6.618,-89.167C-12.987,-88.953,-25.187,-70.054,-34.463,-52.781C-43.092,-36.714,-48.389,-18.331,-40.168,-2.051C-31.163,15.781,-13.35,27.965,6.618,28.571" fill="rgba(28, 121, 142, 0.4)" class="triangle-float3"></path><path d="M1274.823,186.31C1304.095,187.047,1332.786,172.239,1346.346,146.287C1359.113,121.853,1349.087,93.946,1335.665,69.866C1321.755,44.911,1303.392,17.72,1274.823,17.973C1246.499,18.224,1228.983,45.847,1215.818,70.927C1203.828,93.767,1197.534,119.869,1209.279,142.836C1222.073,167.854,1246.732,185.603,1274.823,186.31" fill="rgba(28, 121, 142, 0.4)" class="triangle-float2"></path><path d="M1300.6845349180069 422.5279850897015L1270.1468503609287 491.1167475947858 1388.2988363970944 502.6288931778608z" fill="rgba(28, 121, 142, 0.4)" class="triangle-float2"></path><path d="M44.275,297.695C63.194,298.011,78.449,283.615,87.393,266.94C95.813,251.243,96.298,232.578,87.514,217.082C78.606,201.367,62.339,190.867,44.275,190.875C26.224,190.883,9.738,201.268,1.099,217.118C-7.191,232.328,-4.605,250.274,3.577,265.543C12.329,281.876,25.748,297.386,44.275,297.695" fill="rgba(28, 121, 142, 0.4)" class="triangle-float1"></path><path d="M-58.61 262.48 a97.66 97.66 0 1 0 195.32 0 a97.66 97.66 0 1 0 -195.32 0z" fill="rgba(28, 121, 142, 0.4)" class="triangle-float2"></path><path d="M366.4571224575558 470.1308047763965L234.47567064669605 367.0155935110828 131.36045938138238 498.99704532194255 263.3419111922421 602.1122565872562z" fill="rgba(28, 121, 142, 0.4)" class="triangle-float1"></path><path d="M331.61 134.35 a153.73 153.73 0 1 0 307.46 0 a153.73 153.73 0 1 0 -307.46 0z" fill="rgba(28, 121, 142, 0.4)" class="triangle-float3"></path><path d="M550.514,496.471C575.13,495.804,598.257,483.417,610.1,461.827C621.533,440.986,616.999,416.466,605.945,395.422C593.868,372.43,576.467,349.348,550.514,348.391C523.351,347.39,500.808,367.344,487.522,391.057C474.564,414.184,471.457,442.46,485.056,465.217C498.349,487.463,524.609,497.173,550.514,496.471" fill="rgba(28, 121, 142, 0.4)" class="triangle-float1"></path></g><defs><mask id="SvgjsMask1015"><rect width="1440" height="560" fill="#ffffff"></rect></mask><style>
                @keyframes float1 {
                    0%{transform: translate(0, 0)}
                    50%{transform: translate(-10px, 0)}
                    100%{transform: translate(0, 0)}
                }

                .triangle-float1 {
                    animation: float1 5s infinite;
                }

                @keyframes float2 {
                    0%{transform: translate(0, 0)}
                    50%{transform: translate(-5px, -5px)}
                    100%{transform: translate(0, 0)}
                }

                .triangle-float2 {
                    animation: float2 4s infinite;
                }

                @keyframes float3 {
                    0%{transform: translate(0, 0)}
                    50%{transform: translate(0, -10px)}
                    100%{transform: translate(0, 0)}
                }

                .triangle-float3 {
                    animation: float3 6s infinite;
                }
            </style></defs></svg>